REM DIRINDEX 1\8,1\2\11,1\3\12,1\3\14,1\5\15,1\5\16,1\6\17,1\6\18,1\4\19,1\4\20,1\4\21,1\4\22,1\7\23,1\7\24,1\7\25,1\2\9\26,1\2\9\27,1\2\10\28,1\2\10\29,1\2\10\30,1\2\10\31,1\2\10\32,1\3\13\33,1\3\13\34,1\3\13\35
REM DIRNAME folder01,folder02,folder03,folder04,folder05,folder06,folder07,folder08,folder09,folder10,folder11,folder12,folder13,folder14,folder15,folder16,folder17,folder18,folder19,folder20,folder21,folder22,folder23,folder24,folder25,folder26,folder27,folder28,folder29,folder30,folder31,folder32,folder33,folder34,folder35
TITLE ""
FILE "1-02 002_UNIT1_WARM-UP-40.mp3" MP3
  TRACK 01 AUDIO
    TITLE "11:cjc123_0002"
    INDEX 01 00:00:00
  TRACK 02 AUDIO
    TITLE "0:"
    INDEX 01 00:02:71
  TRACK 03 AUDIO
    TITLE "26:cjc123_0003"
    INDEX 01 00:03:47
  TRACK 04 AUDIO
    TITLE "0:"
    INDEX 01 00:04:50
  TRACK 05 AUDIO
    TITLE "27:cjc123_0004"
    INDEX 01 00:04:72
  TRACK 06 AUDIO
    TITLE "0:"
    INDEX 01 00:05:73
  TRACK 07 AUDIO
    TITLE "26:cjc123_0005"
    INDEX 01 00:06:41
  TRACK 08 AUDIO
    TITLE "0:"
    INDEX 01 00:07:52
  TRACK 09 AUDIO
    TITLE "27:cjc123_0006"
    INDEX 01 00:07:64
  TRACK 10 AUDIO
    TITLE "0:"
    INDEX 01 00:08:62
  TRACK 11 AUDIO
    TITLE "26:cjc123_0007"
    INDEX 01 00:09:32
  TRACK 12 AUDIO
    TITLE "0:"
    INDEX 01 00:10:35
  TRACK 13 AUDIO
    TITLE "27:cjc123_0008"
    INDEX 01 00:10:55
  TRACK 14 AUDIO
    TITLE "0:"
    INDEX 01 00:11:62
  TRACK 15 AUDIO
    TITLE "26:cjc123_0009"
    INDEX 01 00:12:34
  TRACK 16 AUDIO
    TITLE "0:"
    INDEX 01 00:13:28
  TRACK 17 AUDIO
    TITLE "27:cjc123_0010"
    INDEX 01 00:13:45
  TRACK 18 AUDIO
    TITLE "0:"
    INDEX 01 00:14:47
  TRACK 19 AUDIO
    TITLE "26:cjc123_0011"
    INDEX 01 00:15:17
  TRACK 20 AUDIO
    TITLE "0:"
    INDEX 01 00:16:20
  TRACK 21 AUDIO
    TITLE "27:cjc123_0012"
    INDEX 01 00:16:38
  TRACK 22 AUDIO
    TITLE "0:"
    INDEX 01 00:17:69
  TRACK 23 AUDIO
    TITLE "26:cjc123_0013"
    INDEX 01 00:18:39
  TRACK 24 AUDIO
    TITLE "0:"
    INDEX 01 00:19:44
  TRACK 25 AUDIO
    TITLE "27:cjc123_0014"
    INDEX 01 00:19:60
  TRACK 26 AUDIO
    TITLE "0:"
    INDEX 01 00:20:71
  TRACK 27 AUDIO
    TITLE "26:cjc123_0015"
    INDEX 01 00:21:45
  TRACK 28 AUDIO
    TITLE "0:"
    INDEX 01 00:22:56
  TRACK 29 AUDIO
    TITLE "27:cjc123_0016"
    INDEX 01 00:23:01
  TRACK 30 AUDIO
    TITLE "0:"
    INDEX 01 00:24:14
  TRACK 31 AUDIO
    TITLE "26:cjc123_0017"
    INDEX 01 00:24:59
  TRACK 32 AUDIO
    TITLE "0:"
    INDEX 01 00:25:56
  TRACK 33 AUDIO
    TITLE "27:cjc123_0018"
    INDEX 01 00:25:68
  TRACK 34 AUDIO
    TITLE "0:"
    INDEX 01 00:27:04
  TRACK 35 AUDIO
    TITLE "26:cjc123_0019"
    INDEX 01 00:27:47
  TRACK 36 AUDIO
    TITLE "0:"
    INDEX 01 00:28:68
  TRACK 37 AUDIO
    TITLE "27:cjc123_0020"
    INDEX 01 00:29:13
  TRACK 38 AUDIO
    TITLE "0:"
    INDEX 01 00:30:40
  TRACK 39 AUDIO
    TITLE "26:cjc123_0021"
    INDEX 01 00:31:10
  TRACK 40 AUDIO
    TITLE "0:"
    INDEX 01 00:32:23
  TRACK 41 AUDIO
    TITLE "27:cjc123_0022"
    INDEX 01 00:32:41
  TRACK 42 AUDIO
    TITLE "0:"
    INDEX 01 00:33:62
  TRACK 43 AUDIO
    TITLE "26:cjc123_0023"
    INDEX 01 00:34:32
  TRACK 44 AUDIO
    TITLE "0:"
    INDEX 01 00:35:27
  TRACK 45 AUDIO
    TITLE "27:cjc123_0024"
    INDEX 01 00:35:51
  TRACK 46 AUDIO
    TITLE "0:"
    INDEX 01 00:36:52
  TRACK 47 AUDIO
    TITLE "26:cjc123_0025"
    INDEX 01 00:37:22
  TRACK 48 AUDIO
    TITLE "0:"
    INDEX 01 00:38:26
  TRACK 49 AUDIO
    TITLE "27:cjc123_0026"
    INDEX 01 00:38:45
  TRACK 50 AUDIO
    TITLE "0:"
    INDEX 01 00:39:58
  TRACK 51 AUDIO
    TITLE "26:cjc123_0027"
    INDEX 01 00:40:26
  TRACK 52 AUDIO
    TITLE "0:"
    INDEX 01 00:41:38
  TRACK 53 AUDIO
    TITLE "27:cjc123_0028"
    INDEX 01 00:41:55
  TRACK 54 AUDIO
    TITLE "0:"
    INDEX 01 00:42:47
  TRACK 55 AUDIO
    TITLE "26:cjc123_0029"
    INDEX 01 00:43:27
  TRACK 56 AUDIO
    TITLE "0:"
    INDEX 01 00:44:32
  TRACK 57 AUDIO
    TITLE "27:cjc123_0030"
    INDEX 01 00:44:56
  TRACK 58 AUDIO
    TITLE "0:"
    INDEX 01 00:45:71
  TRACK 59 AUDIO
    TITLE "26:cjc123_0031"
    INDEX 01 00:46:39
  TRACK 60 AUDIO
    TITLE "0:"
    INDEX 01 00:47:32
  TRACK 61 AUDIO
    TITLE "27:cjc123_0032"
    INDEX 01 00:47:62
  TRACK 62 AUDIO
    TITLE "0:"
    INDEX 01 00:49:08
  TRACK 63 AUDIO
    TITLE "26:cjc123_0033"
    INDEX 01 00:49:55
  TRACK 64 AUDIO
    TITLE "0:"
    INDEX 01 00:50:56
  TRACK 65 AUDIO
    TITLE "27:cjc123_0034"
    INDEX 01 00:50:74
  TRACK 66 AUDIO
    TITLE "0:"
    INDEX 01 00:52:06
  TRACK 67 AUDIO
    TITLE "26:cjc123_0035"
    INDEX 01 00:52:53
  TRACK 68 AUDIO
    TITLE "0:"
    INDEX 01 00:53:68
  TRACK 69 AUDIO
    TITLE "27:cjc123_0036"
    INDEX 01 00:54:19
  TRACK 70 AUDIO
    TITLE "0:"
    INDEX 01 00:55:34
  TRACK 71 AUDIO
    TITLE "26:cjc123_0037"
    INDEX 01 00:56:06
  TRACK 72 AUDIO
    TITLE "0:"
    INDEX 01 00:57:29
  TRACK 73 AUDIO
    TITLE "27:cjc123_0038"
    INDEX 01 00:57:48
  TRACK 74 AUDIO
    TITLE "0:"
    INDEX 01 00:58:62
  TRACK 75 AUDIO
    TITLE "26:cjc123_0039"
    INDEX 01 00:59:34
  TRACK 76 AUDIO
    TITLE "0:"
    INDEX 01 01:00:47
  TRACK 77 AUDIO
    TITLE "27:cjc123_0040"
    INDEX 01 01:00:72
  TRACK 78 AUDIO
    TITLE "0:"
    INDEX 01 01:02:14
  TRACK 79 AUDIO
    TITLE "26:cjc123_0041"
    INDEX 01 01:02:63
  TRACK 80 AUDIO
    TITLE "0:"
    INDEX 01 01:03:67
  TRACK 81 AUDIO
    TITLE "27:cjc123_0042"
    INDEX 01 01:04:13
  TRACK 82 AUDIO
    TITLE "0:"
    INDEX 01 01:04:74
  TRACK 83 AUDIO
    TITLE "26:cjc123_0043"
    INDEX 01 01:05:46
  TRACK 84 AUDIO
    TITLE "0:"
    INDEX 01 01:06:59
  TRACK 85 AUDIO
    TITLE "27:cjc123_0044"
    INDEX 01 01:07:00
  TRACK 86 AUDIO
    TITLE "0:"
    INDEX 01 01:08:03
  TRACK 87 AUDIO
    TITLE "26:cjc123_0045"
    INDEX 01 01:08:48
  TRACK 88 AUDIO
    TITLE "0:"
    INDEX 01 01:10:00
  TRACK 89 AUDIO
    TITLE "27:cjc123_0046"
    INDEX 01 01:10:14
  TRACK 90 AUDIO
    TITLE "0:"
    INDEX 01 01:11:25
  TRACK 91 AUDIO
    TITLE "26:cjc123_0047"
    INDEX 01 01:11:68
  TRACK 92 AUDIO
    TITLE "0:"
    INDEX 01 01:12:68
  TRACK 93 AUDIO
    TITLE "27:cjc123_0048"
    INDEX 01 01:13:22
  TRACK 94 AUDIO
    TITLE "0:"
    INDEX 01 01:14:35
  TRACK 95 AUDIO
    TITLE "26:cjc123_0049"
    INDEX 01 01:15:07
  TRACK 96 AUDIO
    TITLE "0:"
    INDEX 01 01:16:20
  TRACK 97 AUDIO
    TITLE "27:cjc123_0050"
    INDEX 01 01:16:36
  TRACK 98 AUDIO
    TITLE "0:"
    INDEX 01 01:17:45
  TRACK 99 AUDIO
    TITLE "26:cjc123_0051"
    INDEX 01 01:18:15
  TRACK 100 AUDIO
    TITLE "0:"
    INDEX 01 01:19:38
  TRACK 101 AUDIO
    TITLE "27:cjc123_0052"
    INDEX 01 01:19:62
  TRACK 102 AUDIO
    TITLE "0:"
    INDEX 01 01:21:08
  TRACK 103 AUDIO
    TITLE "26:cjc123_0053"
    INDEX 01 01:21:53
  TRACK 104 AUDIO
    TITLE "0:"
    INDEX 01 01:22:70
  TRACK 105 AUDIO
    TITLE "27:cjc123_0054"
    INDEX 01 01:23:20
  TRACK 106 AUDIO
    TITLE "0:"
    INDEX 01 01:24:26
  TRACK 107 AUDIO
    TITLE "26:cjc123_0055"
    INDEX 01 01:25:02
  TRACK 108 AUDIO
    TITLE "0:"
    INDEX 01 01:26:19
  TRACK 109 AUDIO
    TITLE "27:cjc123_0056"
    INDEX 01 01:26:50
  TRACK 110 AUDIO
    TITLE "0:"
    INDEX 01 01:27:59
  TRACK 111 AUDIO
    TITLE "26:cjc123_0057"
    INDEX 01 01:28:29
  TRACK 112 AUDIO
    TITLE "0:"
    INDEX 01 01:29:50
  TRACK 113 AUDIO
    TITLE "27:cjc123_0058"
    INDEX 01 01:29:70
  TRACK 114 AUDIO
    TITLE "0:"
    INDEX 01 01:31:04
  TRACK 115 AUDIO
    TITLE "26:cjc123_0059"
    INDEX 01 01:31:55
  TRACK 116 AUDIO
    TITLE "0:"
    INDEX 01 01:32:62
  TRACK 117 AUDIO
    TITLE "27:cjc123_0060"
    INDEX 01 01:33:01
  TRACK 118 AUDIO
    TITLE "0:"
    INDEX 01 01:33:64
  TRACK 119 AUDIO
    TITLE "26:cjc123_0061"
    INDEX 01 01:34:32
  TRACK 120 AUDIO
    TITLE "0:"
    INDEX 01 01:35:43
  TRACK 121 AUDIO
    TITLE "27:cjc123_0062"
    INDEX 01 01:35:61
  TRACK 122 AUDIO
    TITLE "0:"
    INDEX 01 01:37:05
  TRACK 123 AUDIO
    TITLE "26:cjc123_0063"
    INDEX 01 01:37:50
  TRACK 124 AUDIO
    TITLE "0:"
    INDEX 01 01:38:59
  TRACK 125 AUDIO
    TITLE "27:cjc123_0064"
    INDEX 01 01:39:08
  TRACK 126 AUDIO
    TITLE "0:"
    INDEX 01 01:40:13
  TRACK 127 AUDIO
    TITLE "26:cjc123_0065"
    INDEX 01 01:40:58
  TRACK 128 AUDIO
    TITLE "0:"
    INDEX 01 01:41:65
  TRACK 129 AUDIO
    TITLE "27:cjc123_0066"
    INDEX 01 01:42:06
  TRACK 130 AUDIO
    TITLE "0:"
    INDEX 01 01:43:09
  TRACK 131 AUDIO
    TITLE "26:cjc123_0067"
    INDEX 01 01:43:52
  TRACK 132 AUDIO
    TITLE "0:"
    INDEX 01 01:45:04
  TRACK 133 AUDIO
    TITLE "27:cjc123_0068"
    INDEX 01 01:45:24
  TRACK 134 AUDIO
    TITLE "0:"
    INDEX 01 01:46:53
  TRACK 135 AUDIO
    TITLE "26:cjc123_0069"
    INDEX 01 01:47:25
  TRACK 136 AUDIO
    TITLE "0:"
    INDEX 01 01:48:38
  TRACK 137 AUDIO
    TITLE "27:cjc123_0070"
    INDEX 01 01:48:63
  TRACK 138 AUDIO
    TITLE "0:"
    INDEX 01 01:50:29
  TRACK 139 AUDIO
    TITLE "26:cjc123_0071"
    INDEX 01 01:51:01
  TRACK 140 AUDIO
    TITLE "0:"
    INDEX 01 01:52:02
  TRACK 141 AUDIO
    TITLE "27:cjc123_0072"
    INDEX 01 01:52:30
  TRACK 142 AUDIO
    TITLE "0:"
    INDEX 01 01:53:55
  TRACK 143 AUDIO
    TITLE "26:cjc123_0073"
    INDEX 01 01:54:27
  TRACK 144 AUDIO
    TITLE "0:"
    INDEX 01 01:55:38
  TRACK 145 AUDIO
    TITLE "27:cjc123_0074"
    INDEX 01 01:55:63
  TRACK 146 AUDIO
    TITLE "0:"
    INDEX 01 01:57:15
  TRACK 147 AUDIO
    TITLE "26:cjc123_0075"
    INDEX 01 01:57:58
  TRACK 148 AUDIO
    TITLE "0:"
    INDEX 01 01:58:64
  TRACK 149 AUDIO
    TITLE "27:cjc123_0076"
    INDEX 01 01:59:10
  TRACK 150 AUDIO
    TITLE "0:"
    INDEX 01 02:00:35
  TRACK 151 AUDIO
    TITLE "26:cjc123_0077"
    INDEX 01 02:01:05
  TRACK 152 AUDIO
    TITLE "0:"
    INDEX 01 02:02:24
  TRACK 153 AUDIO
    TITLE "27:cjc123_0078"
    INDEX 01 02:02:40
  TRACK 154 AUDIO
    TITLE "0:"
    INDEX 01 02:03:65
  TRACK 155 AUDIO
    TITLE "26:cjc123_0079"
    INDEX 01 02:04:33
  TRACK 156 AUDIO
    TITLE "0:"
    INDEX 01 02:05:52
  TRACK 157 AUDIO
    TITLE "27:cjc123_0080"
    INDEX 01 02:06:05
  TRACK 158 AUDIO
    TITLE "0:"
    INDEX 01 02:07:37
  TRACK 159 AUDIO
    TITLE "26:cjc123_0081"
    INDEX 01 02:08:09
  TRACK 160 AUDIO
    TITLE "0:"
    INDEX 01 02:09:40
  TRACK 161 AUDIO
    TITLE "27:cjc123_0082"
    INDEX 01 02:09:60
  TRACK 162 AUDIO
    TITLE "0:"
    INDEX 01 02:11:14
